<svg width="137" height="100" viewBox="0 0 137 100" fill="none" xmlns="http://www.w3.org/2000/svg">
<path d="M17.0833 6.66667C17.0833 2.98477 20.1427 0 23.9167 0H129.833C133.607 0 136.667 2.98477 136.667 6.66667V13.3333C136.667 17.0152 133.607 20 129.833 20H23.9167C20.1427 20 17.0833 17.0152 17.0833 13.3333V6.66667Z" fill="#444444"/>
<path d="M0 86.6667C0 82.9848 3.05939 80 6.83333 80H112.75C116.524 80 119.583 82.9848 119.583 86.6667V93.3333C119.583 97.0152 116.524 100 112.75 100H6.83333C3.05939 100 0 97.0152 0 93.3333V86.6667Z" fill="#444444"/>
<path d="M0 46.6667C0 42.9848 3.05939 40 6.83333 40H129.833C133.607 40 136.667 42.9848 136.667 46.6667V53.3333C136.667 57.0152 133.607 60 129.833 60H6.83334C3.05939 60 0 57.0152 0 53.3333V46.6667Z" fill="#222222"/>
</svg>
